<?xml version="1.0" encoding="UTF-8"?>
<svg width="20px" height="20px" viewBox="0 0 20 20" version="1.1" xmlns="http://www.w3.org/2000/svg" xmlns:xlink="http://www.w3.org/1999/xlink">
    <title>搜索</title>
    <g id="20231220" stroke="none" stroke-width="1" fill="none" fill-rule="evenodd" opacity="0.59656343">
        <g id="家谱页_人物图谱" transform="translate(-1500.000000, -24.000000)" fill="#FFFFFF" fill-rule="nonzero">
            <g id="编组-2备份" transform="translate(1490.000000, 13.000000)">
                <g id="搜索" transform="translate(10.000000, 11.000000)">
                    <path d="M11.4159021,12.0170711 C10.9454873,12.4066917 10.3094674,12.622072 9.62544592,12.622072 C8.94622461,12.622072 8.31260474,12.4091117 7.84218998,12.0219111 C7.53498035,11.7678108 7.08136612,11.8137909 6.82935822,12.1259713 C6.57735031,12.4357317 6.62295174,12.8931124 6.93256145,13.1472128 C7.65978426,13.7449536 8.61501422,14.0740741 9.62544592,14.0740741 C10.6406778,14.0740741 11.6031079,13.7425336 12.3303308,13.1375327 C12.6375404,12.8834324 12.6807418,12.4260517 12.4287338,12.1162913 C12.1767259,11.8065308 11.7231117,11.7629708 11.4159021,12.0170711 L11.4159021,12.0170711 Z" id="路径"></path>
                    <path d="M19.8028022,18.8480613 L16.4290917,15.4733995 C17.0691276,14.7339946 17.5874666,13.9021641 17.9705867,12.9981966 C18.4573746,11.8440036 18.7052758,10.6199279 18.7052758,9.35752931 C18.7052758,8.09513075 18.4573746,6.86880072 17.9705867,5.71686204 C17.4995743,4.60324617 16.8257336,3.60234445 15.9670939,2.74346258 C15.1084541,1.8845807 14.1078345,1.21055005 12.9945326,0.739404869 C11.840665,0.247971145 10.6146806,0 9.35263791,0 C8.0905952,0 6.86461086,0.247971145 5.71299689,0.734896303 C4.59969493,1.20604148 3.59907536,1.88007214 2.74043559,2.73895401 C1.88179582,3.59783589 1.20795516,4.5987376 0.736942794,5.71235347 C0.247901246,6.86880072 0,8.09287647 0,9.35527502 C0,10.6176736 0.247901246,11.8440036 0.734689147,12.9959423 C1.20570151,14.1095582 1.87954217,15.1104599 2.73818194,15.9693417 C3.59682171,16.8282236 4.59744129,17.5022543 5.71074324,17.9733995 C6.86461086,18.4603246 8.08834156,18.7082958 9.35038426,18.7082958 C10.612427,18.7082958 11.8384113,18.4603246 12.9900253,17.9733995 C13.8959917,17.5901713 14.7275876,17.0716862 15.4690377,16.4269612 L18.8427483,19.8016231 C18.9757135,19.9346258 19.1469908,20 19.3205216,20 C19.4940525,20 19.6675834,19.9346258 19.798295,19.8016231 C20.066479,19.5401262 20.066479,19.1118124 19.8028022,18.8480613 Z M9.35263791,17.3579802 C7.2161799,17.3579802 5.20592616,16.5261497 3.69598221,15.0135257 C2.18603826,13.5009017 1.35218861,11.4923354 1.35218861,9.35527502 C1.35218861,7.21821461 2.18378461,5.20739405 3.69598221,3.69702435 C5.20817981,2.18440036 7.2161799,1.35256988 9.35263791,1.35256988 C11.4890959,1.35256988 13.4993497,2.18440036 15.0092936,3.69702435 C16.5192376,5.20964833 17.3530872,7.21821461 17.3530872,9.35527502 C17.3530872,11.4923354 16.5214912,13.5009017 15.0115473,15.0112714 L15.0092936,15.0135257 C13.4993497,16.5261497 11.4913496,17.3579802 9.35263791,17.3579802 Z" id="形状"></path>
                </g>
            </g>
        </g>
    </g>
</svg>